<svg width="60" height="60" viewBox="0 0 60 60" fill="none" xmlns="http://www.w3.org/2000/svg">
<path d="M58.5724 51.2161H55.6605V7.35624C55.6605 6.56765 55.0213 5.9286 54.2331 5.9286H32.1371C31.3487 5.9286 30.7094 6.56784 30.7094 7.35624V51.2161H29.237V22.7854C29.237 21.9968 28.5978 21.3578 27.8094 21.3578H5.71354C4.92494 21.3578 4.2859 21.997 4.2859 22.7854V40.864C4.2859 40.8658 4.2859 40.8674 4.2859 40.8692V51.2161H1.42764C0.639241 51.2161 0 51.8552 0 52.6438C0 53.4323 0.639241 54.0714 1.42764 54.0714H58.5726C59.3608 54.0714 60 53.4323 60 52.6438C60 51.8552 59.3608 51.2161 58.5724 51.2161ZM26.3819 51.2161H20.4011L22.6361 48.9816C23.1937 48.424 23.1937 47.5203 22.6361 46.9627C22.0787 46.4053 21.1748 46.4053 20.6172 46.9627L16.3636 51.2163H8.99139L13.0341 47.1736C13.5917 46.616 13.5917 45.7123 13.0341 45.1547C12.4765 44.5971 11.5728 44.5971 11.0153 45.1547L7.14097 49.029V41.458L11.2038 37.3952C11.7614 36.8376 11.7614 35.9339 11.2038 35.3763C10.6462 34.8187 9.74254 34.8187 9.18495 35.3763L7.14097 37.4203V24.2131H26.3819V51.2161ZM52.8055 51.2161H33.5645V8.78388H52.8055V51.2161Z" fill="white"/>
<path d="M10.8565 29.594H14.1899C14.9783 29.594 15.6176 28.955 15.6176 28.1664C15.6176 27.3778 14.9783 26.7388 14.1901 26.7388H10.8565C10.0681 26.7388 9.42889 27.3778 9.42889 28.1664C9.42889 28.955 10.0681 29.594 10.8565 29.594Z" fill="white"/>
<path d="M45.8519 15.4983H49.1855C49.9739 15.4983 50.6131 14.8593 50.6131 14.0707C50.6131 13.2821 49.9739 12.643 49.1855 12.643H45.8519C45.0635 12.643 44.4244 13.2821 44.4244 14.0707C44.4244 14.8593 45.0635 15.4983 45.8519 15.4983Z" fill="white"/>
<path d="M45.8519 22.5463H49.1855C49.9739 22.5463 50.6131 21.9072 50.6131 21.1188C50.6131 20.3302 49.9739 19.6912 49.1855 19.6912H45.8519C45.0635 19.6912 44.4244 20.3302 44.4244 21.1188C44.4242 21.9072 45.0635 22.5463 45.8519 22.5463Z" fill="white"/>
<path d="M19.5235 29.594H22.8572C23.6455 29.594 24.2848 28.955 24.2848 28.1664C24.2848 27.3778 23.6455 26.7388 22.8572 26.7388H19.5235C18.7351 26.7388 18.0961 27.3778 18.0961 28.1664C18.0961 28.955 18.7351 29.594 19.5235 29.594Z" fill="white"/>
<path d="M19.5235 36.642H22.8572C23.6455 36.642 24.2848 36.003 24.2848 35.2144C24.2848 34.426 23.6455 33.787 22.8572 33.787H19.5235C18.7351 33.787 18.0961 34.426 18.0961 35.2144C18.0959 36.003 18.7351 36.642 19.5235 36.642Z" fill="white"/>
<path d="M19.5235 43.6898H22.8572C23.6455 43.6898 24.2848 43.0508 24.2848 42.2624C24.2848 41.4738 23.6455 40.8347 22.8572 40.8347H19.5235C18.7351 40.8347 18.0961 41.4738 18.0961 42.2624C18.0959 43.0508 18.7351 43.6898 19.5235 43.6898Z" fill="white"/>
<path d="M45.8519 29.594H49.1855C49.9739 29.594 50.6131 28.955 50.6131 28.1664C50.6131 27.3778 49.9739 26.7388 49.1855 26.7388H45.8519C45.0635 26.7388 44.4244 27.3778 44.4244 28.1664C44.4244 28.955 45.0635 29.594 45.8519 29.594Z" fill="white"/>
<path d="M37.1849 36.642H40.5183C41.3067 36.642 41.9459 36.003 41.9459 35.2144C41.9459 34.426 41.3067 33.787 40.5183 33.787H37.1849C36.3965 33.787 35.7573 34.426 35.7573 35.2144C35.7573 36.003 36.3965 36.642 37.1849 36.642Z" fill="white"/>
<path d="M37.1849 29.594H40.5183C41.3067 29.594 41.9459 28.955 41.9459 28.1664C41.9459 27.3778 41.3067 26.7388 40.5183 26.7388H37.1849C36.3965 26.7388 35.7573 27.3778 35.7573 28.1664C35.7573 28.955 36.3965 29.594 37.1849 29.594Z" fill="white"/>
<path d="M37.1849 43.6898H40.5183C41.3067 43.6898 41.9459 43.0508 41.9459 42.2624C41.9459 41.4738 41.3067 40.8347 40.5183 40.8347H37.1849C36.3965 40.8347 35.7573 41.4738 35.7573 42.2624C35.7573 43.0508 36.3965 43.6898 37.1849 43.6898Z" fill="white"/>
<path d="M45.8519 43.6898H49.1855C49.9739 43.6898 50.6131 43.0508 50.6131 42.2624C50.6131 41.4738 49.9739 40.8347 49.1855 40.8347H45.8519C45.0635 40.8347 44.4244 41.4738 44.4244 42.2624C44.4242 43.0508 45.0635 43.6898 45.8519 43.6898Z" fill="white"/>
<path d="M45.8519 36.642H49.1855C49.9739 36.642 50.6131 36.003 50.6131 35.2144C50.6131 34.426 49.9739 33.787 49.1855 33.787H45.8519C45.0635 33.787 44.4244 34.426 44.4244 35.2144C44.4242 36.003 45.0635 36.642 45.8519 36.642Z" fill="white"/>
<path d="M37.1849 15.4983H40.5183C41.3067 15.4983 41.9459 14.8593 41.9459 14.0707C41.9459 13.2821 41.3067 12.643 40.5183 12.643H37.1849C36.3965 12.643 35.7573 13.2821 35.7573 14.0707C35.7573 14.8593 36.3965 15.4983 37.1849 15.4983Z" fill="white"/>
<path d="M37.1849 22.5463H40.5183C41.3067 22.5463 41.9459 21.9072 41.9459 21.1188C41.9459 20.3302 41.3067 19.6912 40.5183 19.6912H37.1849C36.3965 19.6912 35.7573 20.3302 35.7573 21.1188C35.7573 21.9072 36.3965 22.5463 37.1849 22.5463Z" fill="white"/>
</svg>
