<svg width="62" height="62" viewBox="0 0 62 62" fill="none" xmlns="http://www.w3.org/2000/svg">
<path d="M22.4995 12.5158C25.2708 12.5158 27.5173 10.2692 27.5173 7.49793C27.5173 4.72666 25.2708 2.4801 22.4995 2.4801C19.7282 2.4801 17.4817 4.72666 17.4817 7.49793C17.4817 10.2692 19.7282 12.5158 22.4995 12.5158Z" fill="white"/>
<path d="M60.4359 41.1627C59.8567 39.2205 57.8689 35.9021 56.7158 34.7343C53.6825 31.4857 49.8678 29.3875 44.7943 28.7747L42.9482 21.7291C42.7316 20.9027 41.8863 20.4077 41.0592 20.6246C40.2326 20.8414 39.738 21.6869 39.9548 22.5135L39.9974 22.6763L39.6757 22.7991L36.6873 19.9696C37.0653 19.4044 37.1883 18.6775 36.9553 17.983C36.5561 16.7927 35.2678 16.1516 34.0768 16.5506L25.4707 19.4374L25.64 18.6918C26.0548 16.8663 24.9111 15.0501 23.0855 14.6353L17.6128 13.392C15.7062 12.9754 13.6496 13.582 13.134 15.8505C9.27697 32.8258 17.577 -3.71851 9.2805 32.8104L9.2884 32.8121L7.9703 42.4344L0.358672 55.541C-0.375913 56.8057 0.054032 58.4265 1.31872 59.1611C2.58321 59.8957 4.20407 59.466 4.93866 58.2011L12.8136 44.6421C12.9871 44.3435 13.1003 44.0137 13.1473 43.6715L14.4735 33.9897L16.3412 34.414L20.5179 43.9108L20.9568 56.9599C21.005 58.3914 22.1803 59.5192 23.6019 59.5192C23.6318 59.5192 23.6624 59.5185 23.6923 59.5177C25.154 59.4685 26.2992 58.2437 26.2499 56.782L25.7938 43.223C25.7824 42.8862 25.7069 42.5545 25.571 42.2461L22.0878 34.3261L22.7075 31.5987L21.7842 31.4965C19.7756 31.2741 18.4103 29.7308 18.1371 28.6404L15.8766 19.6242L20.2542 28.1097C20.6033 28.7863 21.2678 29.2433 22.0247 29.327L31.0527 30.3263C32.2922 30.4637 33.4235 29.5726 33.5625 28.3167C33.7007 27.0684 32.8009 25.945 31.5531 25.8068L23.7365 24.9415L19.7721 17.2574C20.0578 17.5755 24.573 22.6064 24.8042 22.8641L28.3741 23.2594L33.7543 21.4546L36.4672 24.0232L34.3592 24.8276C35.3399 25.7553 35.8908 27.1149 35.7312 28.5569C35.461 30.9971 33.261 32.767 30.812 32.4956L29.4131 32.3408L30.5093 36.5239C30.6406 37.0249 31.1281 37.3466 31.6406 37.2703L43.3632 35.5225L43.4058 35.6852C43.6225 36.512 44.4685 37.0064 45.2947 36.7896C46.1213 36.5729 46.6159 35.7273 46.3992 34.9007L45.9422 33.1568C49.0275 33.4226 51.7233 34.3563 54.6176 36.8027C56.1348 38.0011 58.0102 40.9752 58.4376 41.9949C59.7659 44.8948 60.1664 46.5138 60.7827 49.7817L60.7887 49.8143C60.8452 50.1161 61.1208 50.3334 61.4342 50.3102C61.7706 50.2852 62.0231 49.9922 61.9981 49.6558C61.7386 46.1549 61.5042 44.4208 60.4359 41.1627Z" fill="white"/>
<path d="M56.679 47.5327C55.4083 45.799 53.6511 44.8545 51.5427 44.6472C50.3381 44.5389 49.4019 45.6284 49.6629 46.784C49.8824 47.7551 51.1518 48.1166 51.7734 48.1002C52.6692 48.0767 53.579 47.6722 55.2773 48.8573C56.4431 49.7554 56.8909 50.656 57.1794 51.1822L57.1935 51.2081C57.2822 51.3696 57.4674 51.4635 57.6586 51.4282C57.8969 51.3839 58.0544 51.1547 58.0102 50.9162C57.8144 49.862 57.575 48.8198 56.679 47.5327Z" fill="white"/>
<path d="M59.6042 31.1792C59.7541 31.2862 59.9621 31.2912 60.1192 31.1767C60.3149 31.0335 60.3575 30.7588 60.2144 30.5631L60.1971 30.5398C59.5517 29.657 59.1527 28.9786 58.8979 27.8313C58.7311 26.8669 58.8148 25.9687 59.2464 25.0477C59.3555 24.8208 59.5629 24.4559 59.698 24.3369C59.6994 24.3377 59.6973 24.3493 59.6971 24.351C60.4382 23.4396 60.0679 22.0132 58.915 21.6007C58.2398 21.3592 56.9857 21.4085 56.4897 23.1707C56.4059 23.4612 56.3183 23.8614 56.2657 24.3414C56.1142 25.8042 56.3712 27.1989 57.104 28.5388C57.818 29.7715 58.5669 30.4363 59.6042 31.1792Z" fill="white"/>
</svg>
