<svg width="56" height="56" viewBox="0 0 56 56" fill="none" xmlns="http://www.w3.org/2000/svg">
<path d="M53.2847 42.2705H47.0646L41.2936 38.0547C40.7319 37.6467 39.9455 37.7649 39.5375 38.3266C39.1296 38.8884 39.2478 39.6748 39.8096 40.0827L42.7895 42.2705H40.8028C40.3771 42.2705 40.046 42.6607 40.1229 43.0805L41.9558 53.7353C42.015 54.0665 42.2988 54.3088 42.6358 54.3088H47.0408H51.505C51.842 54.3088 52.1318 54.0664 52.185 53.7294L53.9588 43.0746C54.0357 42.6548 53.7105 42.2705 53.2847 42.2705ZM46.9995 45.9955C46.4673 46.0782 45.9707 45.7117 45.8878 45.1796C45.8583 44.9726 45.8938 44.7716 45.9824 44.5942C46.1185 44.3222 46.3846 44.1153 46.7098 44.068C47.0705 44.0148 47.4193 44.1626 47.6263 44.4345C47.7267 44.5646 47.7977 44.7184 47.8214 44.8898C47.8983 45.4161 47.5376 45.9127 46.9995 45.9955Z" fill="white"/>
<path d="M21.3912 13.15C22.8162 13.15 24.3831 12.3577 24.3831 12.3577C23.644 11.9261 23.2656 11.0687 23.0823 10.2055C23.8569 11.4885 25.1991 12.3341 26.7186 12.3341C28.2382 12.3341 29.5804 11.4885 30.355 10.2055C30.1717 11.0746 29.7933 11.9261 29.0542 12.3577C29.0542 12.3577 30.6211 13.15 32.0461 13.15C32.9685 13.15 33.8377 12.8189 34.1806 11.7132C34.2339 11.5477 34.1629 11.3703 34.0092 11.2934C33.4948 11.0155 32.3654 10.2173 32.3654 8.57353C32.3654 6.44493 32.8976 0 26.7187 0C20.5398 0 21.072 6.44493 21.072 8.57353C21.072 10.2173 19.9427 11.0155 19.4282 11.2934C19.2745 11.3762 19.2036 11.5536 19.2568 11.7132C19.5997 12.813 20.4688 13.15 21.3912 13.15Z" fill="white"/>
<path d="M40.8857 32.1655C41.7903 31.4915 41.9795 30.2084 41.3055 29.3038L31.508 16.1301C29.4208 13.3511 25.2641 13.4753 22.6684 15.4088C22.6625 15.4147 14.5501 21.4516 14.5501 21.4516L9.64843 18.7376V23.4146L13.7223 25.6733C14.0298 25.8447 14.3727 25.9275 14.7157 25.9275C15.1473 25.9275 15.579 25.7915 15.9396 25.5255L20.5634 22.0842V27.1633L15.6676 40.8218C15.4962 41.2771 15.8391 41.7679 16.324 41.7679H20.5634V52.3458C20.5634 53.8654 21.7933 55.0953 23.3129 55.0953C24.8325 55.0953 26.0623 53.8654 26.0623 52.3458V41.756H27.3867V52.334C27.3867 53.8535 28.6166 55.0834 30.1362 55.0834C31.6558 55.0834 32.8856 53.8535 32.8856 52.334V41.756H37.1251C37.6158 41.756 37.9529 41.2712 37.7815 40.81L32.8856 27.1515V24.8159L38.0357 31.7398C38.4378 32.2779 39.0527 32.5617 39.6795 32.5617C40.0934 32.5676 40.5191 32.4376 40.8857 32.1655Z" fill="white"/>
<path d="M8.525 40.9756V22.7878V21.2387V3.44122C8.525 2.79082 7.99285 2.25867 7.34245 2.25867C6.69204 2.25867 6.15989 2.79082 6.15989 3.44122V40.8396C6.45553 40.7804 6.76299 40.7509 7.06455 40.7509C7.56116 40.7509 8.05789 40.8277 8.525 40.9756Z" fill="white"/>
<path d="M15.9633 54.5514C14.0121 53.5758 12.4215 51.6777 12.4215 49.1293C12.4215 46.5809 10.9256 45.4752 10.3343 45.1382C9.61887 44.8603 8.78517 44.6652 7.88642 44.5883C7.62035 44.5647 7.34245 44.5528 7.06454 44.5528C6.94629 44.5528 6.82212 44.5528 6.70386 44.5588C5.41488 44.6061 4.22641 44.8957 3.30401 45.351C1.9086 46.2793 2.03276 48.2719 2.03276 48.2719C2.03276 54.5926 6.78073 55.9999 11.0084 55.9999C12.8709 55.9999 14.6329 55.7279 15.8391 55.4796C16.3062 55.3909 16.389 54.7642 15.9633 54.5514Z" fill="white"/>
<path d="M5.93514 43.3702C6.17757 43.3466 6.42591 43.3288 6.67424 43.3229C6.80432 43.317 6.9344 43.317 7.06449 43.317C7.37195 43.317 7.6735 43.3288 7.96914 43.3525C8.21748 43.3702 8.46582 43.3998 8.70824 43.4353C8.91519 43.4648 9.11622 43.5003 9.31726 43.5417C9.47099 43.5772 9.62472 43.6127 9.77846 43.6481C9.69568 43.4707 9.60698 43.3052 9.50647 43.1574C9.37047 42.9563 9.22265 42.779 9.06892 42.637C8.95067 42.5306 8.8265 42.4419 8.69642 42.3769C8.6432 42.3473 8.58407 42.3237 8.53086 42.3C8.06966 42.099 7.57299 41.9926 7.0704 41.9926C6.76293 41.9926 6.46138 42.0339 6.16574 42.1108C5.97653 42.1581 5.78732 42.2232 5.60403 42.3059C5.55081 42.3296 5.4976 42.3532 5.44438 42.3769C5.3143 42.4419 5.18422 42.5365 5.06005 42.6489C4.78806 42.8972 4.54564 43.2461 4.36234 43.6481C4.66981 43.5713 4.9891 43.5003 5.32021 43.4471C5.52125 43.4175 5.72234 43.388 5.93514 43.3702Z" fill="white"/>
</svg>
