<svg width="53" height="53" viewBox="0 0 53 53" fill="none" xmlns="http://www.w3.org/2000/svg">
<path d="M50.8616 0H2.13852C1.55552 0 1.08276 0.472756 1.08276 1.05576V43.8237C1.08276 48.8835 5.19927 52.9999 10.259 52.9999C13.7782 52.9999 16.8406 51.008 18.3795 48.0928C19.9184 51.0082 22.9808 53 26.5 53C30.0192 53 33.0816 51.0082 34.6205 48.0929C36.1594 51.0082 39.2218 53 42.741 53C47.8008 53 51.9172 48.8835 51.9172 43.8238V1.05576C51.9173 0.472756 51.4446 0 50.8616 0ZM17.3237 43.8238C17.3237 47.7193 14.1545 50.8885 10.259 50.8885C6.36351 50.8885 3.19428 47.7193 3.19428 43.8238V35.4774C4.87879 37.5083 7.4203 38.8042 10.259 38.8042C13.0977 38.8042 15.6392 37.5085 17.3237 35.4774V43.8238ZM17.3237 29.5677V29.6277C17.3237 33.5232 14.1545 36.6925 10.259 36.6925C6.36351 36.6925 3.19428 33.5232 3.19428 29.6277V29.5677V21.1613C4.87879 23.1923 7.4203 24.4881 10.259 24.4881C13.0977 24.4881 15.6392 23.1924 17.3237 21.1613V29.5677ZM17.3237 15.3117C17.3237 19.2072 14.1545 22.3765 10.259 22.3765C6.36351 22.3765 3.19428 19.2072 3.19428 15.3117V2.11151H17.3237V15.3117ZM33.5647 43.8238C33.5647 47.7193 30.3955 50.8885 26.5 50.8885C22.6045 50.8885 19.4353 47.7193 19.4353 43.8238V35.4774C21.1198 37.5083 23.6613 38.8042 26.5 38.8042C29.3387 38.8042 31.8802 37.5085 33.5647 35.4774V43.8238ZM33.5647 29.5678V29.6278C33.5647 33.5233 30.3955 36.6926 26.5 36.6926C22.6045 36.6926 19.4353 33.5233 19.4353 29.6278V29.5678V21.1614C21.1198 23.1923 23.6613 24.4882 26.5 24.4882C29.3387 24.4882 31.8802 23.1925 33.5647 21.1614V29.5678ZM33.5647 15.3117C33.5647 19.2072 30.3955 22.3765 26.5 22.3765C22.6045 22.3765 19.4353 19.2072 19.4353 15.3117V2.11151H33.5647V15.3117ZM49.8057 43.8238C49.8057 47.7193 46.6365 50.8885 42.741 50.8885C38.8455 50.8885 35.6762 47.7193 35.6762 43.8238V35.4774C37.3607 37.5083 39.9023 38.8042 42.741 38.8042C45.5797 38.8042 48.1212 37.5085 49.8057 35.4774V43.8238ZM49.8057 29.5678V29.6278C49.8057 33.5233 46.6365 36.6926 42.741 36.6926C38.8455 36.6926 35.6762 33.5233 35.6762 29.6278V29.5678V21.1614C37.3607 23.1923 39.9023 24.4882 42.741 24.4882C45.5797 24.4882 48.1212 23.1925 49.8057 21.1614V29.5678ZM49.8057 15.3117C49.8057 19.2072 46.6365 22.3765 42.741 22.3765C38.8455 22.3765 35.6762 19.2072 35.6762 15.3117V2.11151H49.8057V15.3117Z" fill="white"/>
<path d="M47.8267 3.27826C47.2437 3.27826 46.7709 3.75102 46.7709 4.33401V9.19055C46.7709 9.77355 47.2437 10.2463 47.8267 10.2463C48.4097 10.2463 48.8824 9.77355 48.8824 9.19055V4.33401C48.8824 3.75102 48.4097 3.27826 47.8267 3.27826Z" fill="white"/>
<path d="M47.8267 11.302C47.2437 11.302 46.7709 11.7748 46.7709 12.3578V13.4135C46.7709 13.9965 47.2437 14.4693 47.8267 14.4693C48.4097 14.4693 48.8824 13.9965 48.8824 13.4135V12.3578C48.8824 11.7749 48.4097 11.302 47.8267 11.302Z" fill="white"/>
</svg>
