<svg width="37" height="37" viewBox="0 0 37 37" fill="none" xmlns="http://www.w3.org/2000/svg">
<g clip-path="url(#clip0_22_451)">
<path d="M3.48516 10.4605C3.80268 10.6193 4.70231 11.0955 5.68511 9.99179C6.07823 9.43991 6.47135 8.88803 6.94006 8.34371C7.49194 7.71624 7.40878 6.69564 6.7813 6.14376C6.15383 5.59189 5.13323 5.67505 4.58135 6.30252C4.02948 6.93 3.4776 7.64064 3.00888 8.34371C2.54772 9.04679 2.78208 9.98423 3.48516 10.4605Z" fill="#2FAC66"/>
<path d="M18.8243 3.06691C20.3212 3.06691 21.8105 3.30127 23.2318 3.77755C24.1843 4.05727 24.8799 3.46003 25.1974 2.83256C25.4317 1.97072 24.963 1.10132 24.1768 0.866963C22.4456 0.315086 20.7143 0.00512695 18.9075 0.00512695C18.0457 0.00512695 17.335 0.632604 17.335 1.502C17.335 2.3714 17.9625 3.06691 18.8243 3.06691Z" fill="#2FAC66"/>
<path d="M32.8254 12.6606C33.3773 13.9987 33.6872 15.4124 33.846 16.8261C33.846 16.8261 33.9367 18.58 35.5772 18.323C37.2026 18.1113 36.9909 16.5162 36.9909 16.5162C36.8322 14.7849 36.3635 13.0537 35.736 11.4812C35.3429 10.695 34.481 10.3019 33.6948 10.6194C32.901 11.0125 32.5079 11.8743 32.8254 12.6606Z" fill="#2FAC66"/>
<path d="M27.163 5.74317C28.4179 6.60501 29.5217 7.63316 30.4667 8.81252C31.1698 9.68947 32.3567 9.3266 32.591 9.04688C33.2185 8.495 33.3773 7.4744 32.8254 6.84693C31.7216 5.50881 30.3835 4.25386 28.8942 3.2257C28.1836 2.75698 27.2461 2.90818 26.7699 3.61882C26.2936 4.32946 26.4523 5.26689 27.163 5.74317Z" fill="#2FAC66"/>
<path d="M10.1757 5.50121C11.4307 4.71497 12.852 4.08749 14.2657 3.69437C15.1275 3.46002 15.6038 2.59062 15.3694 1.80438C15.1351 0.942546 14.2657 0.466267 13.4794 0.700626C11.7482 1.16934 10.1001 1.87998 8.60327 2.82498C7.89263 3.2937 7.65827 4.23869 8.13455 4.94933C8.44451 5.42561 9.10978 5.89432 10.1757 5.50121Z" fill="#2FAC66"/>
<path d="M35.4185 20.2885C34.5566 20.0541 33.7704 20.606 33.6116 21.4678C33.4529 22.1785 32.969 23.8341 32.9615 23.9928C30.8825 29.3982 25.8929 33.2009 20.1624 33.8132C14.5227 34.4029 9.03416 31.8552 5.85142 27.2739L8.76201 27.9165C9.54824 28.0752 10.4101 27.599 10.5688 26.7371C10.7276 25.9509 10.2513 25.089 9.38948 24.9303L3.25835 23.5922C2.86523 23.5166 1.64052 23.5922 1.36836 24.7715L0.030243 30.9858C-0.128516 31.7721 0.347762 32.6339 1.2096 32.7927C2.16971 32.8909 2.85767 32.3239 3.09959 31.5377L3.56831 29.4058C7.06857 34.1459 13.3887 37.6537 20.48 36.8902C27.6317 36.119 33.6948 31.3033 36.0535 24.5447C36.1291 24.3482 36.4844 22.7001 36.6054 22.1029C36.8397 21.2335 36.2878 20.4472 35.4185 20.2885Z" fill="#2FAC66"/>
<path d="M12.4437 20.0542H19.6937C20.5556 20.0542 21.1906 19.3435 21.2662 18.4817V7.73141C21.2662 6.86957 20.5556 6.15894 19.6937 6.15894C18.8319 6.15894 18.1213 6.86957 18.1213 7.73141V16.9092H12.4437C11.5819 16.9092 10.8712 17.6199 10.8712 18.4817C10.8712 19.3435 11.5743 20.0542 12.4437 20.0542Z" fill="#2FAC66"/>
</g>
<defs>
<clipPath id="clip0_22_451">
<rect width="37" height="37" fill="white"/>
</clipPath>
</defs>
</svg>
